M48
; DRILL file {KiCad (5.1.5)-3} date 11/06/2020 04:13:45
; FORMAT={-:-/ absolute / metric / decimal}
; #@! TF.CreationDate,2020-06-11T04:13:45+01:00
; #@! TF.GenerationSoftware,Kicad,Pcbnew,(5.1.5)-3
; #@! TF.FileFunction,Plated,1,2,PTH
FMAT,2
METRIC
T1C0.300
T2C0.600
T3C0.850
T4C0.900
T5C0.920
T6C1.000
T7C1.016
T8C2.330
%
G90
G05
T1
X158.75Y-106.0
X159.0Y-127.75
X160.75Y-112.25
X160.75Y-128.25
X160.75Y-115.0
X164.0Y-137.25
X165.25Y-113.5
X165.25Y-112.0
X166.0Y-115.0
X166.25Y-135.25
X166.75Y-143.0
X167.75Y-141.0
X170.25Y-137.5
X171.0Y-133.0
X171.0Y-134.25
X171.75Y-113.5
X172.0Y-142.25
X172.0Y-127.75
X173.5Y-130.25
X175.25Y-116.75
X175.25Y-136.25
X175.25Y-138.75
X176.75Y-113.5
X177.75Y-130.25
X178.5Y-142.5
X178.75Y-120.75
X179.0Y-106.0
X179.75Y-133.5
X179.75Y-137.5
X181.0Y-124.5
X181.25Y-146.25
X182.0Y-118.745
X183.5Y-108.5
X183.5Y-140.0
X183.75Y-120.0
X184.75Y-133.5
X184.75Y-130.5
X185.0Y-125.5
X185.75Y-103.5
X187.25Y-112.75
X187.691Y-137.22
X187.75Y-132.0
X187.765Y-130.726
X188.0Y-126.0
X188.75Y-126.5
X188.75Y-128.25
X189.5Y-127.0
X190.5Y-133.625
X191.0Y-121.5
X191.25Y-134.25
X191.5Y-130.75
X192.0Y-138.75
X192.5Y-147.0
X193.25Y-137.0
X193.5Y-112.0
X194.0Y-134.25
X194.5Y-139.5
X194.75Y-122.5
X194.75Y-133.0
X195.5Y-142.25
X196.25Y-133.75
X196.25Y-128.25
X198.5Y-107.5
X198.75Y-120.0
X199.0Y-126.75
X200.0Y-136.25
X200.0Y-141.25
X203.75Y-115.0
X203.75Y-134.25
X204.25Y-129.25
X205.5Y-136.75
X206.5Y-141.25
X208.25Y-119.25
X208.75Y-123.0
X208.75Y-144.25
X210.0Y-105.5
X210.0Y-136.75
X213.5Y-147.0
X215.25Y-138.0
X215.75Y-144.5
X215.75Y-116.5
X215.75Y-119.25
X215.75Y-141.25
X220.0Y-122.5
X220.25Y-102.25
X223.75Y-138.8
X224.45Y-138.8
X227.5Y-127.25
T3
X225.887Y-135.0
X225.887Y-140.0
T4
X206.25Y-111.5
X208.75Y-111.5
X211.25Y-111.5
X213.75Y-111.5
T5
X218.0Y-136.25
X218.0Y-138.75
X220.0Y-136.25
X220.0Y-138.75
T6
X192.96Y-103.0
X195.5Y-103.0
X167.5Y-103.0
X170.04Y-103.0
X172.58Y-103.0
X175.12Y-103.0
X177.66Y-103.0
X207.46Y-133.5
X210.0Y-133.5
X212.54Y-133.5
X162.71Y-118.75
X165.25Y-118.75
X162.71Y-124.5
X165.25Y-124.5
X167.5Y-109.5
X170.04Y-109.5
X172.58Y-109.5
X175.12Y-109.5
X167.38Y-147.0
X169.92Y-147.0
X172.46Y-147.0
X175.0Y-147.0
T7
X153.46Y-104.68
X153.46Y-107.22
X153.46Y-109.76
X153.46Y-112.3
X153.46Y-114.84
X153.46Y-117.38
X153.46Y-119.92
X153.46Y-122.46
X153.46Y-125.0
X153.46Y-127.54
X153.46Y-130.08
X153.46Y-132.62
X153.46Y-135.16
X153.46Y-137.7
X153.46Y-140.24
X153.46Y-142.78
X153.46Y-145.32
X156.0Y-104.68
X156.0Y-107.22
X156.0Y-109.76
X156.0Y-112.3
X156.0Y-114.84
X156.0Y-117.38
X156.0Y-119.92
X156.0Y-122.46
X156.0Y-125.0
X156.0Y-127.54
X156.0Y-130.08
X156.0Y-132.62
X156.0Y-135.16
X156.0Y-137.7
X156.0Y-140.24
X156.0Y-142.78
X156.0Y-145.32
T8
X222.71Y-131.48
X222.71Y-143.52
T2
G00X228.237Y-134.0
M15
G01X228.938Y-134.0
M16
G05
G00X228.938Y-141.0
M15
G01X228.237Y-141.0
M16
G05
T6
G00X219.0Y-114.5
M15
G01X219.0Y-112.5
M16
G05
G00X223.0Y-108.8
M15
G01X221.0Y-108.8
M16
G05
G00X225.0Y-114.5
M15
G01X225.0Y-112.5
M16
G05
T0
M30
