G04 #@! TF.GenerationSoftware,KiCad,Pcbnew,(5.1.5)-3*
G04 #@! TF.CreationDate,2020-06-11T04:13:49+01:00*
G04 #@! TF.ProjectId,Greaseweazle_F7_Plus_V2,47726561-7365-4776-9561-7a6c655f4637,rev?*
G04 #@! TF.SameCoordinates,Original*
G04 #@! TF.FileFunction,Soldermask,Bot*
G04 #@! TF.FilePolarity,Negative*
%FSLAX46Y46*%
G04 Gerber Fmt 4.6, Leading zero omitted, Abs format (unit mm)*
G04 Created by KiCad (PCBNEW (5.1.5)-3) date 2020-06-11 04:13:49*
%MOMM*%
%LPD*%
G04 APERTURE LIST*
%ADD10C,0.100000*%
G04 APERTURE END LIST*
D10*
G36*
X227302390Y-145479783D02*
G01*
X227452118Y-145509565D01*
X227568960Y-145557963D01*
X227734199Y-145626407D01*
X227734200Y-145626408D01*
X227988068Y-145796036D01*
X228203964Y-146011932D01*
X228203965Y-146011934D01*
X228373593Y-146265801D01*
X228490435Y-146547883D01*
X228550000Y-146847337D01*
X228550000Y-147152663D01*
X228490435Y-147452117D01*
X228373593Y-147734199D01*
X228373592Y-147734200D01*
X228203964Y-147988068D01*
X227988068Y-148203964D01*
X227860273Y-148289353D01*
X227734199Y-148373593D01*
X227568960Y-148442037D01*
X227452118Y-148490435D01*
X227302390Y-148520218D01*
X227152663Y-148550000D01*
X226847337Y-148550000D01*
X226697610Y-148520218D01*
X226547882Y-148490435D01*
X226431040Y-148442037D01*
X226265801Y-148373593D01*
X226139727Y-148289353D01*
X226011932Y-148203964D01*
X225796036Y-147988068D01*
X225626408Y-147734200D01*
X225626407Y-147734199D01*
X225509565Y-147452117D01*
X225450000Y-147152663D01*
X225450000Y-146847337D01*
X225509565Y-146547883D01*
X225626407Y-146265801D01*
X225796035Y-146011934D01*
X225796036Y-146011932D01*
X226011932Y-145796036D01*
X226265800Y-145626408D01*
X226265801Y-145626407D01*
X226431040Y-145557963D01*
X226547882Y-145509565D01*
X226697610Y-145479783D01*
X226847337Y-145450000D01*
X227152663Y-145450000D01*
X227302390Y-145479783D01*
G37*
G36*
X162302390Y-145479783D02*
G01*
X162452118Y-145509565D01*
X162568960Y-145557963D01*
X162734199Y-145626407D01*
X162734200Y-145626408D01*
X162988068Y-145796036D01*
X163203964Y-146011932D01*
X163203965Y-146011934D01*
X163373593Y-146265801D01*
X163490435Y-146547883D01*
X163550000Y-146847337D01*
X163550000Y-147152663D01*
X163490435Y-147452117D01*
X163373593Y-147734199D01*
X163373592Y-147734200D01*
X163203964Y-147988068D01*
X162988068Y-148203964D01*
X162860273Y-148289353D01*
X162734199Y-148373593D01*
X162568960Y-148442037D01*
X162452118Y-148490435D01*
X162302390Y-148520218D01*
X162152663Y-148550000D01*
X161847337Y-148550000D01*
X161697610Y-148520218D01*
X161547882Y-148490435D01*
X161431040Y-148442037D01*
X161265801Y-148373593D01*
X161139727Y-148289353D01*
X161011932Y-148203964D01*
X160796036Y-147988068D01*
X160626408Y-147734200D01*
X160626407Y-147734199D01*
X160509565Y-147452117D01*
X160450000Y-147152663D01*
X160450000Y-146847337D01*
X160509565Y-146547883D01*
X160626407Y-146265801D01*
X160796035Y-146011934D01*
X160796036Y-146011932D01*
X161011932Y-145796036D01*
X161265800Y-145626408D01*
X161265801Y-145626407D01*
X161431040Y-145557963D01*
X161547882Y-145509565D01*
X161697610Y-145479783D01*
X161847337Y-145450000D01*
X162152663Y-145450000D01*
X162302390Y-145479783D01*
G37*
G36*
X175900000Y-147900000D02*
G01*
X174100000Y-147900000D01*
X174100000Y-146100000D01*
X175900000Y-146100000D01*
X175900000Y-147900000D01*
G37*
G36*
X167584561Y-146123057D02*
G01*
X167642520Y-146134586D01*
X167758335Y-146182558D01*
X167796801Y-146198491D01*
X167806310Y-146202430D01*
X167953717Y-146300924D01*
X168079076Y-146426283D01*
X168177570Y-146573690D01*
X168245414Y-146737480D01*
X168280000Y-146911358D01*
X168280000Y-147088642D01*
X168245414Y-147262520D01*
X168177570Y-147426310D01*
X168079076Y-147573717D01*
X167953717Y-147699076D01*
X167806310Y-147797570D01*
X167642520Y-147865414D01*
X167584561Y-147876943D01*
X167468644Y-147900000D01*
X167291356Y-147900000D01*
X167175439Y-147876943D01*
X167117480Y-147865414D01*
X166953690Y-147797570D01*
X166806283Y-147699076D01*
X166680924Y-147573717D01*
X166582430Y-147426310D01*
X166514586Y-147262520D01*
X166480000Y-147088642D01*
X166480000Y-146911358D01*
X166514586Y-146737480D01*
X166582430Y-146573690D01*
X166680924Y-146426283D01*
X166806283Y-146300924D01*
X166953690Y-146202430D01*
X166963200Y-146198491D01*
X167001665Y-146182558D01*
X167117480Y-146134586D01*
X167175439Y-146123057D01*
X167291356Y-146100000D01*
X167468644Y-146100000D01*
X167584561Y-146123057D01*
G37*
G36*
X172664561Y-146123057D02*
G01*
X172722520Y-146134586D01*
X172838335Y-146182558D01*
X172876801Y-146198491D01*
X172886310Y-146202430D01*
X173033717Y-146300924D01*
X173159076Y-146426283D01*
X173257570Y-146573690D01*
X173325414Y-146737480D01*
X173360000Y-146911358D01*
X173360000Y-147088642D01*
X173325414Y-147262520D01*
X173257570Y-147426310D01*
X173159076Y-147573717D01*
X173033717Y-147699076D01*
X172886310Y-147797570D01*
X172722520Y-147865414D01*
X172664561Y-147876943D01*
X172548644Y-147900000D01*
X172371356Y-147900000D01*
X172255439Y-147876943D01*
X172197480Y-147865414D01*
X172033690Y-147797570D01*
X171886283Y-147699076D01*
X171760924Y-147573717D01*
X171662430Y-147426310D01*
X171594586Y-147262520D01*
X171560000Y-147088642D01*
X171560000Y-146911358D01*
X171594586Y-146737480D01*
X171662430Y-146573690D01*
X171760924Y-146426283D01*
X171886283Y-146300924D01*
X172033690Y-146202430D01*
X172043200Y-146198491D01*
X172081665Y-146182558D01*
X172197480Y-146134586D01*
X172255439Y-146123057D01*
X172371356Y-146100000D01*
X172548644Y-146100000D01*
X172664561Y-146123057D01*
G37*
G36*
X170124561Y-146123057D02*
G01*
X170182520Y-146134586D01*
X170298335Y-146182558D01*
X170336801Y-146198491D01*
X170346310Y-146202430D01*
X170493717Y-146300924D01*
X170619076Y-146426283D01*
X170717570Y-146573690D01*
X170785414Y-146737480D01*
X170820000Y-146911358D01*
X170820000Y-147088642D01*
X170785414Y-147262520D01*
X170717570Y-147426310D01*
X170619076Y-147573717D01*
X170493717Y-147699076D01*
X170346310Y-147797570D01*
X170182520Y-147865414D01*
X170124561Y-147876943D01*
X170008644Y-147900000D01*
X169831356Y-147900000D01*
X169715439Y-147876943D01*
X169657480Y-147865414D01*
X169493690Y-147797570D01*
X169346283Y-147699076D01*
X169220924Y-147573717D01*
X169122430Y-147426310D01*
X169054586Y-147262520D01*
X169020000Y-147088642D01*
X169020000Y-146911358D01*
X169054586Y-146737480D01*
X169122430Y-146573690D01*
X169220924Y-146426283D01*
X169346283Y-146300924D01*
X169493690Y-146202430D01*
X169503200Y-146198491D01*
X169541665Y-146182558D01*
X169657480Y-146134586D01*
X169715439Y-146123057D01*
X169831356Y-146100000D01*
X170008644Y-146100000D01*
X170124561Y-146123057D01*
G37*
G36*
X156913600Y-146233600D02*
G01*
X155086400Y-146233600D01*
X155086400Y-144406400D01*
X156913600Y-144406400D01*
X156913600Y-146233600D01*
G37*
G36*
X153608817Y-144418103D02*
G01*
X153726487Y-144441509D01*
X153892752Y-144510378D01*
X154042386Y-144610360D01*
X154169640Y-144737614D01*
X154269622Y-144887248D01*
X154338491Y-145053513D01*
X154373600Y-145230018D01*
X154373600Y-145409982D01*
X154338491Y-145586487D01*
X154269622Y-145752752D01*
X154169640Y-145902386D01*
X154042386Y-146029640D01*
X153892752Y-146129622D01*
X153726487Y-146198491D01*
X153608817Y-146221897D01*
X153549983Y-146233600D01*
X153370017Y-146233600D01*
X153311183Y-146221897D01*
X153193513Y-146198491D01*
X153027248Y-146129622D01*
X152877614Y-146029640D01*
X152750360Y-145902386D01*
X152650378Y-145752752D01*
X152581509Y-145586487D01*
X152546400Y-145409982D01*
X152546400Y-145230018D01*
X152581509Y-145053513D01*
X152650378Y-144887248D01*
X152750360Y-144737614D01*
X152877614Y-144610360D01*
X153027248Y-144510378D01*
X153193513Y-144441509D01*
X153311183Y-144418103D01*
X153370017Y-144406400D01*
X153549983Y-144406400D01*
X153608817Y-144418103D01*
G37*
G36*
X223061163Y-141754587D02*
G01*
X223235041Y-141789173D01*
X223562620Y-141924861D01*
X223857433Y-142121849D01*
X224108151Y-142372567D01*
X224305139Y-142667380D01*
X224440827Y-142994959D01*
X224510000Y-143342716D01*
X224510000Y-143697284D01*
X224440827Y-144045041D01*
X224305139Y-144372620D01*
X224108151Y-144667433D01*
X223857433Y-144918151D01*
X223562620Y-145115139D01*
X223235041Y-145250827D01*
X223061162Y-145285414D01*
X222887286Y-145320000D01*
X222532714Y-145320000D01*
X222358838Y-145285414D01*
X222184959Y-145250827D01*
X221857380Y-145115139D01*
X221562567Y-144918151D01*
X221311849Y-144667433D01*
X221114861Y-144372620D01*
X220979173Y-144045041D01*
X220910000Y-143697284D01*
X220910000Y-143342716D01*
X220979173Y-142994959D01*
X221114861Y-142667380D01*
X221311849Y-142372567D01*
X221562567Y-142121849D01*
X221857380Y-141924861D01*
X222184959Y-141789173D01*
X222358837Y-141754587D01*
X222532714Y-141720000D01*
X222887286Y-141720000D01*
X223061163Y-141754587D01*
G37*
G36*
X156148817Y-141878103D02*
G01*
X156266487Y-141901509D01*
X156432752Y-141970378D01*
X156582386Y-142070360D01*
X156709640Y-142197614D01*
X156809622Y-142347248D01*
X156878491Y-142513513D01*
X156878491Y-142513515D01*
X156909098Y-142667382D01*
X156913600Y-142690018D01*
X156913600Y-142869982D01*
X156878491Y-143046487D01*
X156809622Y-143212752D01*
X156709640Y-143362386D01*
X156582386Y-143489640D01*
X156432752Y-143589622D01*
X156266487Y-143658491D01*
X156148817Y-143681897D01*
X156089983Y-143693600D01*
X155910017Y-143693600D01*
X155851183Y-143681897D01*
X155733513Y-143658491D01*
X155567248Y-143589622D01*
X155417614Y-143489640D01*
X155290360Y-143362386D01*
X155190378Y-143212752D01*
X155121509Y-143046487D01*
X155086400Y-142869982D01*
X155086400Y-142690018D01*
X155090903Y-142667382D01*
X155121509Y-142513515D01*
X155121509Y-142513513D01*
X155190378Y-142347248D01*
X155290360Y-142197614D01*
X155417614Y-142070360D01*
X155567248Y-141970378D01*
X155733513Y-141901509D01*
X155851183Y-141878103D01*
X155910017Y-141866400D01*
X156089983Y-141866400D01*
X156148817Y-141878103D01*
G37*
G36*
X153608817Y-141878103D02*
G01*
X153726487Y-141901509D01*
X153892752Y-141970378D01*
X154042386Y-142070360D01*
X154169640Y-142197614D01*
X154269622Y-142347248D01*
X154338491Y-142513513D01*
X154338491Y-142513515D01*
X154369098Y-142667382D01*
X154373600Y-142690018D01*
X154373600Y-142869982D01*
X154338491Y-143046487D01*
X154269622Y-143212752D01*
X154169640Y-143362386D01*
X154042386Y-143489640D01*
X153892752Y-143589622D01*
X153726487Y-143658491D01*
X153608817Y-143681897D01*
X153549983Y-143693600D01*
X153370017Y-143693600D01*
X153311183Y-143681897D01*
X153193513Y-143658491D01*
X153027248Y-143589622D01*
X152877614Y-143489640D01*
X152750360Y-143362386D01*
X152650378Y-143212752D01*
X152581509Y-143046487D01*
X152546400Y-142869982D01*
X152546400Y-142690018D01*
X152550903Y-142667382D01*
X152581509Y-142513515D01*
X152581509Y-142513513D01*
X152650378Y-142347248D01*
X152750360Y-142197614D01*
X152877614Y-142070360D01*
X153027248Y-141970378D01*
X153193513Y-141901509D01*
X153311183Y-141878103D01*
X153370017Y-141866400D01*
X153549983Y-141866400D01*
X153608817Y-141878103D01*
G37*
G36*
X229064922Y-140359405D02*
G01*
X229187448Y-140396573D01*
X229300368Y-140456930D01*
X229399343Y-140538157D01*
X229480570Y-140637132D01*
X229540927Y-140750052D01*
X229578095Y-140872578D01*
X229590645Y-141000000D01*
X229578095Y-141127422D01*
X229540927Y-141249948D01*
X229480570Y-141362868D01*
X229399343Y-141461843D01*
X229300368Y-141543070D01*
X229187448Y-141603427D01*
X229064922Y-141640595D01*
X228969432Y-141650000D01*
X228205568Y-141650000D01*
X228110078Y-141640595D01*
X227987552Y-141603427D01*
X227874632Y-141543070D01*
X227775657Y-141461843D01*
X227694430Y-141362868D01*
X227634073Y-141249948D01*
X227596905Y-141127422D01*
X227584355Y-141000000D01*
X227596905Y-140872578D01*
X227634073Y-140750052D01*
X227694430Y-140637132D01*
X227775657Y-140538157D01*
X227874632Y-140456930D01*
X227987552Y-140396573D01*
X228110078Y-140359405D01*
X228205568Y-140350000D01*
X228969432Y-140350000D01*
X229064922Y-140359405D01*
G37*
G36*
X153608817Y-139338103D02*
G01*
X153726487Y-139361509D01*
X153892752Y-139430378D01*
X154042386Y-139530360D01*
X154169640Y-139657614D01*
X154269622Y-139807248D01*
X154338491Y-139973513D01*
X154338491Y-139973515D01*
X154373600Y-140150017D01*
X154373600Y-140329983D01*
X154366217Y-140367099D01*
X154338491Y-140506487D01*
X154269622Y-140672752D01*
X154169640Y-140822386D01*
X154042386Y-140949640D01*
X153892752Y-141049622D01*
X153726487Y-141118491D01*
X153608817Y-141141897D01*
X153549983Y-141153600D01*
X153370017Y-141153600D01*
X153311183Y-141141897D01*
X153193513Y-141118491D01*
X153027248Y-141049622D01*
X152877614Y-140949640D01*
X152750360Y-140822386D01*
X152650378Y-140672752D01*
X152581509Y-140506487D01*
X152553783Y-140367099D01*
X152546400Y-140329983D01*
X152546400Y-140150017D01*
X152581509Y-139973515D01*
X152581509Y-139973513D01*
X152650378Y-139807248D01*
X152750360Y-139657614D01*
X152877614Y-139530360D01*
X153027248Y-139430378D01*
X153193513Y-139361509D01*
X153311183Y-139338103D01*
X153370017Y-139326400D01*
X153549983Y-139326400D01*
X153608817Y-139338103D01*
G37*
G36*
X156148817Y-139338103D02*
G01*
X156266487Y-139361509D01*
X156432752Y-139430378D01*
X156582386Y-139530360D01*
X156709640Y-139657614D01*
X156809622Y-139807248D01*
X156878491Y-139973513D01*
X156878491Y-139973515D01*
X156913600Y-140150017D01*
X156913600Y-140329983D01*
X156906217Y-140367099D01*
X156878491Y-140506487D01*
X156809622Y-140672752D01*
X156709640Y-140822386D01*
X156582386Y-140949640D01*
X156432752Y-141049622D01*
X156266487Y-141118491D01*
X156148817Y-141141897D01*
X156089983Y-141153600D01*
X155910017Y-141153600D01*
X155851183Y-141141897D01*
X155733513Y-141118491D01*
X155567248Y-141049622D01*
X155417614Y-140949640D01*
X155290360Y-140822386D01*
X155190378Y-140672752D01*
X155121509Y-140506487D01*
X155093783Y-140367099D01*
X155086400Y-140329983D01*
X155086400Y-140150017D01*
X155121509Y-139973515D01*
X155121509Y-139973513D01*
X155190378Y-139807248D01*
X155290360Y-139657614D01*
X155417614Y-139530360D01*
X155567248Y-139430378D01*
X155733513Y-139361509D01*
X155851183Y-139338103D01*
X155910017Y-139326400D01*
X156089983Y-139326400D01*
X156148817Y-139338103D01*
G37*
G36*
X226113557Y-139254782D02*
G01*
X226254599Y-139313203D01*
X226317636Y-139355323D01*
X226381534Y-139398018D01*
X226489482Y-139505966D01*
X226489483Y-139505968D01*
X226574297Y-139632901D01*
X226632718Y-139773943D01*
X226662500Y-139923668D01*
X226662500Y-140076332D01*
X226632718Y-140226057D01*
X226574297Y-140367099D01*
X226574296Y-140367100D01*
X226489482Y-140494034D01*
X226381534Y-140601982D01*
X226328928Y-140637132D01*
X226254599Y-140686797D01*
X226113557Y-140745218D01*
X225963832Y-140775000D01*
X225811168Y-140775000D01*
X225661443Y-140745218D01*
X225520401Y-140686797D01*
X225446072Y-140637132D01*
X225393466Y-140601982D01*
X225285518Y-140494034D01*
X225200704Y-140367100D01*
X225200703Y-140367099D01*
X225142282Y-140226057D01*
X225112500Y-140076332D01*
X225112500Y-139923668D01*
X225142282Y-139773943D01*
X225200703Y-139632901D01*
X225285517Y-139505968D01*
X225285518Y-139505966D01*
X225393466Y-139398018D01*
X225457364Y-139355323D01*
X225520401Y-139313203D01*
X225661443Y-139254782D01*
X225811168Y-139225000D01*
X225963832Y-139225000D01*
X226113557Y-139254782D01*
G37*
G36*
X220204561Y-137873057D02*
G01*
X220262520Y-137884586D01*
X220426310Y-137952430D01*
X220573717Y-138050924D01*
X220699076Y-138176283D01*
X220797570Y-138323690D01*
X220833172Y-138409640D01*
X220865414Y-138487481D01*
X220890501Y-138613600D01*
X220900000Y-138661358D01*
X220900000Y-138838642D01*
X220865414Y-139012520D01*
X220797570Y-139176310D01*
X220699076Y-139323717D01*
X220573717Y-139449076D01*
X220426310Y-139547570D01*
X220262520Y-139615414D01*
X220204561Y-139626943D01*
X220088644Y-139650000D01*
X219911356Y-139650000D01*
X219795439Y-139626943D01*
X219737480Y-139615414D01*
X219573690Y-139547570D01*
X219426283Y-139449076D01*
X219300924Y-139323717D01*
X219202430Y-139176310D01*
X219134586Y-139012520D01*
X219100000Y-138838642D01*
X219100000Y-138661358D01*
X219109500Y-138613600D01*
X219134586Y-138487481D01*
X219166829Y-138409640D01*
X219202430Y-138323690D01*
X219300924Y-138176283D01*
X219426283Y-138050924D01*
X219573690Y-137952430D01*
X219737480Y-137884586D01*
X219795439Y-137873057D01*
X219911356Y-137850000D01*
X220088644Y-137850000D01*
X220204561Y-137873057D01*
G37*
G36*
X218204561Y-137873057D02*
G01*
X218262520Y-137884586D01*
X218426310Y-137952430D01*
X218573717Y-138050924D01*
X218699076Y-138176283D01*
X218797570Y-138323690D01*
X218833172Y-138409640D01*
X218865414Y-138487481D01*
X218890501Y-138613600D01*
X218900000Y-138661358D01*
X218900000Y-138838642D01*
X218865414Y-139012520D01*
X218797570Y-139176310D01*
X218699076Y-139323717D01*
X218573717Y-139449076D01*
X218426310Y-139547570D01*
X218262520Y-139615414D01*
X218204561Y-139626943D01*
X218088644Y-139650000D01*
X217911356Y-139650000D01*
X217795439Y-139626943D01*
X217737480Y-139615414D01*
X217573690Y-139547570D01*
X217426283Y-139449076D01*
X217300924Y-139323717D01*
X217202430Y-139176310D01*
X217134586Y-139012520D01*
X217100000Y-138838642D01*
X217100000Y-138661358D01*
X217109500Y-138613600D01*
X217134586Y-138487481D01*
X217166829Y-138409640D01*
X217202430Y-138323690D01*
X217300924Y-138176283D01*
X217426283Y-138050924D01*
X217573690Y-137952430D01*
X217737480Y-137884586D01*
X217795439Y-137873057D01*
X217911356Y-137850000D01*
X218088644Y-137850000D01*
X218204561Y-137873057D01*
G37*
G36*
X153608817Y-136798103D02*
G01*
X153726487Y-136821509D01*
X153892752Y-136890378D01*
X154042386Y-136990360D01*
X154169640Y-137117614D01*
X154269622Y-137267248D01*
X154338491Y-137433513D01*
X154373600Y-137610018D01*
X154373600Y-137789982D01*
X154338491Y-137966487D01*
X154269622Y-138132752D01*
X154169640Y-138282386D01*
X154042386Y-138409640D01*
X153892752Y-138509622D01*
X153726487Y-138578491D01*
X153608817Y-138601897D01*
X153549983Y-138613600D01*
X153370017Y-138613600D01*
X153311183Y-138601897D01*
X153193513Y-138578491D01*
X153027248Y-138509622D01*
X152877614Y-138409640D01*
X152750360Y-138282386D01*
X152650378Y-138132752D01*
X152581509Y-137966487D01*
X152546400Y-137789982D01*
X152546400Y-137610018D01*
X152581509Y-137433513D01*
X152650378Y-137267248D01*
X152750360Y-137117614D01*
X152877614Y-136990360D01*
X153027248Y-136890378D01*
X153193513Y-136821509D01*
X153311183Y-136798103D01*
X153370017Y-136786400D01*
X153549983Y-136786400D01*
X153608817Y-136798103D01*
G37*
G36*
X156148817Y-136798103D02*
G01*
X156266487Y-136821509D01*
X156432752Y-136890378D01*
X156582386Y-136990360D01*
X156709640Y-137117614D01*
X156809622Y-137267248D01*
X156878491Y-137433513D01*
X156913600Y-137610018D01*
X156913600Y-137789982D01*
X156878491Y-137966487D01*
X156809622Y-138132752D01*
X156709640Y-138282386D01*
X156582386Y-138409640D01*
X156432752Y-138509622D01*
X156266487Y-138578491D01*
X156148817Y-138601897D01*
X156089983Y-138613600D01*
X155910017Y-138613600D01*
X155851183Y-138601897D01*
X155733513Y-138578491D01*
X155567248Y-138509622D01*
X155417614Y-138409640D01*
X155290360Y-138282386D01*
X155190378Y-138132752D01*
X155121509Y-137966487D01*
X155086400Y-137789982D01*
X155086400Y-137610018D01*
X155121509Y-137433513D01*
X155190378Y-137267248D01*
X155290360Y-137117614D01*
X155417614Y-136990360D01*
X155567248Y-136890378D01*
X155733513Y-136821509D01*
X155851183Y-136798103D01*
X155910017Y-136786400D01*
X156089983Y-136786400D01*
X156148817Y-136798103D01*
G37*
G36*
X220174606Y-135367099D02*
G01*
X220262520Y-135384586D01*
X220426310Y-135452430D01*
X220573717Y-135550924D01*
X220699076Y-135676283D01*
X220797570Y-135823690D01*
X220865414Y-135987480D01*
X220900000Y-136161358D01*
X220900000Y-136338642D01*
X220865414Y-136512520D01*
X220797570Y-136676310D01*
X220699076Y-136823717D01*
X220573717Y-136949076D01*
X220426310Y-137047570D01*
X220262520Y-137115414D01*
X220204561Y-137126943D01*
X220088644Y-137150000D01*
X219911356Y-137150000D01*
X219795439Y-137126943D01*
X219737480Y-137115414D01*
X219573690Y-137047570D01*
X219426283Y-136949076D01*
X219300924Y-136823717D01*
X219202430Y-136676310D01*
X219134586Y-136512520D01*
X219100000Y-136338642D01*
X219100000Y-136161358D01*
X219134586Y-135987480D01*
X219202430Y-135823690D01*
X219300924Y-135676283D01*
X219426283Y-135550924D01*
X219573690Y-135452430D01*
X219737480Y-135384586D01*
X219825394Y-135367099D01*
X219911356Y-135350000D01*
X220088644Y-135350000D01*
X220174606Y-135367099D01*
G37*
G36*
X218900000Y-137150000D02*
G01*
X217100000Y-137150000D01*
X217100000Y-135350000D01*
X218900000Y-135350000D01*
X218900000Y-137150000D01*
G37*
G36*
X153608817Y-134258103D02*
G01*
X153726487Y-134281509D01*
X153892752Y-134350378D01*
X154042386Y-134450360D01*
X154169640Y-134577614D01*
X154269622Y-134727248D01*
X154338491Y-134893513D01*
X154373600Y-135070018D01*
X154373600Y-135249982D01*
X154338491Y-135426487D01*
X154269622Y-135592752D01*
X154169640Y-135742386D01*
X154042386Y-135869640D01*
X153892752Y-135969622D01*
X153726487Y-136038491D01*
X153608817Y-136061897D01*
X153549983Y-136073600D01*
X153370017Y-136073600D01*
X153311183Y-136061897D01*
X153193513Y-136038491D01*
X153027248Y-135969622D01*
X152877614Y-135869640D01*
X152750360Y-135742386D01*
X152650378Y-135592752D01*
X152581509Y-135426487D01*
X152546400Y-135249982D01*
X152546400Y-135070018D01*
X152581509Y-134893513D01*
X152650378Y-134727248D01*
X152750360Y-134577614D01*
X152877614Y-134450360D01*
X153027248Y-134350378D01*
X153193513Y-134281509D01*
X153311183Y-134258103D01*
X153370017Y-134246400D01*
X153549983Y-134246400D01*
X153608817Y-134258103D01*
G37*
G36*
X156148817Y-134258103D02*
G01*
X156266487Y-134281509D01*
X156432752Y-134350378D01*
X156582386Y-134450360D01*
X156709640Y-134577614D01*
X156809622Y-134727248D01*
X156878491Y-134893513D01*
X156913600Y-135070018D01*
X156913600Y-135249982D01*
X156878491Y-135426487D01*
X156809622Y-135592752D01*
X156709640Y-135742386D01*
X156582386Y-135869640D01*
X156432752Y-135969622D01*
X156266487Y-136038491D01*
X156148817Y-136061897D01*
X156089983Y-136073600D01*
X155910017Y-136073600D01*
X155851183Y-136061897D01*
X155733513Y-136038491D01*
X155567248Y-135969622D01*
X155417614Y-135869640D01*
X155290360Y-135742386D01*
X155190378Y-135592752D01*
X155121509Y-135426487D01*
X155086400Y-135249982D01*
X155086400Y-135070018D01*
X155121509Y-134893513D01*
X155190378Y-134727248D01*
X155290360Y-134577614D01*
X155417614Y-134450360D01*
X155567248Y-134350378D01*
X155733513Y-134281509D01*
X155851183Y-134258103D01*
X155910017Y-134246400D01*
X156089983Y-134246400D01*
X156148817Y-134258103D01*
G37*
G36*
X226113557Y-134254782D02*
G01*
X226254599Y-134313203D01*
X226254600Y-134313204D01*
X226381534Y-134398018D01*
X226489482Y-134505966D01*
X226532177Y-134569864D01*
X226574297Y-134632901D01*
X226632718Y-134773943D01*
X226662500Y-134923668D01*
X226662500Y-135076332D01*
X226632718Y-135226057D01*
X226574297Y-135367099D01*
X226534615Y-135426487D01*
X226489482Y-135494034D01*
X226381534Y-135601982D01*
X226317636Y-135644677D01*
X226254599Y-135686797D01*
X226113557Y-135745218D01*
X225963832Y-135775000D01*
X225811168Y-135775000D01*
X225661443Y-135745218D01*
X225520401Y-135686797D01*
X225457364Y-135644677D01*
X225393466Y-135601982D01*
X225285518Y-135494034D01*
X225240385Y-135426487D01*
X225200703Y-135367099D01*
X225142282Y-135226057D01*
X225112500Y-135076332D01*
X225112500Y-134923668D01*
X225142282Y-134773943D01*
X225200703Y-134632901D01*
X225242823Y-134569864D01*
X225285518Y-134505966D01*
X225393466Y-134398018D01*
X225520400Y-134313204D01*
X225520401Y-134313203D01*
X225661443Y-134254782D01*
X225811168Y-134225000D01*
X225963832Y-134225000D01*
X226113557Y-134254782D01*
G37*
G36*
X229064922Y-133359405D02*
G01*
X229187448Y-133396573D01*
X229300368Y-133456930D01*
X229399343Y-133538157D01*
X229480570Y-133637132D01*
X229540927Y-133750052D01*
X229578095Y-133872578D01*
X229590645Y-134000000D01*
X229578095Y-134127422D01*
X229540927Y-134249948D01*
X229480570Y-134362868D01*
X229399343Y-134461843D01*
X229300368Y-134543070D01*
X229187448Y-134603427D01*
X229064922Y-134640595D01*
X228969432Y-134650000D01*
X228205568Y-134650000D01*
X228110078Y-134640595D01*
X227987552Y-134603427D01*
X227874632Y-134543070D01*
X227775657Y-134461843D01*
X227694430Y-134362868D01*
X227634073Y-134249948D01*
X227596905Y-134127422D01*
X227584355Y-134000000D01*
X227596905Y-133872578D01*
X227634073Y-133750052D01*
X227694430Y-133637132D01*
X227775657Y-133538157D01*
X227874632Y-133456930D01*
X227987552Y-133396573D01*
X228110078Y-133359405D01*
X228205568Y-133350000D01*
X228969432Y-133350000D01*
X229064922Y-133359405D01*
G37*
G36*
X213440000Y-134400000D02*
G01*
X211640000Y-134400000D01*
X211640000Y-132600000D01*
X213440000Y-132600000D01*
X213440000Y-134400000D01*
G37*
G36*
X210204561Y-132623057D02*
G01*
X210262520Y-132634586D01*
X210426310Y-132702430D01*
X210573717Y-132800924D01*
X210699076Y-132926283D01*
X210797570Y-133073690D01*
X210850878Y-133202386D01*
X210865414Y-133237481D01*
X210900000Y-133411356D01*
X210900000Y-133588644D01*
X210876943Y-133704561D01*
X210865414Y-133762520D01*
X210797570Y-133926310D01*
X210699076Y-134073717D01*
X210573717Y-134199076D01*
X210426310Y-134297570D01*
X210262520Y-134365414D01*
X210204561Y-134376943D01*
X210088644Y-134400000D01*
X209911356Y-134400000D01*
X209795439Y-134376943D01*
X209737480Y-134365414D01*
X209573690Y-134297570D01*
X209426283Y-134199076D01*
X209300924Y-134073717D01*
X209202430Y-133926310D01*
X209134586Y-133762520D01*
X209123057Y-133704561D01*
X209100000Y-133588644D01*
X209100000Y-133411356D01*
X209134586Y-133237481D01*
X209149123Y-133202386D01*
X209202430Y-133073690D01*
X209300924Y-132926283D01*
X209426283Y-132800924D01*
X209573690Y-132702430D01*
X209737480Y-132634586D01*
X209795439Y-132623057D01*
X209911356Y-132600000D01*
X210088644Y-132600000D01*
X210204561Y-132623057D01*
G37*
G36*
X207664561Y-132623057D02*
G01*
X207722520Y-132634586D01*
X207886310Y-132702430D01*
X208033717Y-132800924D01*
X208159076Y-132926283D01*
X208257570Y-133073690D01*
X208310878Y-133202386D01*
X208325414Y-133237481D01*
X208360000Y-133411356D01*
X208360000Y-133588644D01*
X208336943Y-133704561D01*
X208325414Y-133762520D01*
X208257570Y-133926310D01*
X208159076Y-134073717D01*
X208033717Y-134199076D01*
X207886310Y-134297570D01*
X207722520Y-134365414D01*
X207664561Y-134376943D01*
X207548644Y-134400000D01*
X207371356Y-134400000D01*
X207255439Y-134376943D01*
X207197480Y-134365414D01*
X207033690Y-134297570D01*
X206886283Y-134199076D01*
X206760924Y-134073717D01*
X206662430Y-133926310D01*
X206594586Y-133762520D01*
X206583057Y-133704561D01*
X206560000Y-133588644D01*
X206560000Y-133411356D01*
X206594586Y-133237481D01*
X206609123Y-133202386D01*
X206662430Y-133073690D01*
X206760924Y-132926283D01*
X206886283Y-132800924D01*
X207033690Y-132702430D01*
X207197480Y-132634586D01*
X207255439Y-132623057D01*
X207371356Y-132600000D01*
X207548644Y-132600000D01*
X207664561Y-132623057D01*
G37*
G36*
X156148817Y-131718103D02*
G01*
X156266487Y-131741509D01*
X156432752Y-131810378D01*
X156582386Y-131910360D01*
X156709640Y-132037614D01*
X156809622Y-132187248D01*
X156878491Y-132353513D01*
X156913600Y-132530018D01*
X156913600Y-132709982D01*
X156878491Y-132886487D01*
X156809622Y-133052752D01*
X156709640Y-133202386D01*
X156582386Y-133329640D01*
X156432752Y-133429622D01*
X156266487Y-133498491D01*
X156148817Y-133521897D01*
X156089983Y-133533600D01*
X155910017Y-133533600D01*
X155851183Y-133521897D01*
X155733513Y-133498491D01*
X155567248Y-133429622D01*
X155417614Y-133329640D01*
X155290360Y-133202386D01*
X155190378Y-133052752D01*
X155121509Y-132886487D01*
X155086400Y-132709982D01*
X155086400Y-132530018D01*
X155121509Y-132353513D01*
X155190378Y-132187248D01*
X155290360Y-132037614D01*
X155417614Y-131910360D01*
X155567248Y-131810378D01*
X155733513Y-131741509D01*
X155851183Y-131718103D01*
X155910017Y-131706400D01*
X156089983Y-131706400D01*
X156148817Y-131718103D01*
G37*
G36*
X153608817Y-131718103D02*
G01*
X153726487Y-131741509D01*
X153892752Y-131810378D01*
X154042386Y-131910360D01*
X154169640Y-132037614D01*
X154269622Y-132187248D01*
X154338491Y-132353513D01*
X154373600Y-132530018D01*
X154373600Y-132709982D01*
X154338491Y-132886487D01*
X154269622Y-133052752D01*
X154169640Y-133202386D01*
X154042386Y-133329640D01*
X153892752Y-133429622D01*
X153726487Y-133498491D01*
X153608817Y-133521897D01*
X153549983Y-133533600D01*
X153370017Y-133533600D01*
X153311183Y-133521897D01*
X153193513Y-133498491D01*
X153027248Y-133429622D01*
X152877614Y-133329640D01*
X152750360Y-133202386D01*
X152650378Y-133052752D01*
X152581509Y-132886487D01*
X152546400Y-132709982D01*
X152546400Y-132530018D01*
X152581509Y-132353513D01*
X152650378Y-132187248D01*
X152750360Y-132037614D01*
X152877614Y-131910360D01*
X153027248Y-131810378D01*
X153193513Y-131741509D01*
X153311183Y-131718103D01*
X153370017Y-131706400D01*
X153549983Y-131706400D01*
X153608817Y-131718103D01*
G37*
G36*
X223061162Y-129714586D02*
G01*
X223235041Y-129749173D01*
X223562620Y-129884861D01*
X223857433Y-130081849D01*
X224108151Y-130332567D01*
X224305139Y-130627380D01*
X224440827Y-130954959D01*
X224448513Y-130993600D01*
X224510000Y-131302714D01*
X224510000Y-131657286D01*
X224493247Y-131741509D01*
X224440827Y-132005041D01*
X224305139Y-132332620D01*
X224108151Y-132627433D01*
X223857433Y-132878151D01*
X223562620Y-133075139D01*
X223235041Y-133210827D01*
X223101047Y-133237480D01*
X222887286Y-133280000D01*
X222532714Y-133280000D01*
X222318953Y-133237480D01*
X222184959Y-133210827D01*
X221857380Y-133075139D01*
X221562567Y-132878151D01*
X221311849Y-132627433D01*
X221114861Y-132332620D01*
X220979173Y-132005041D01*
X220926753Y-131741509D01*
X220910000Y-131657286D01*
X220910000Y-131302714D01*
X220971487Y-130993600D01*
X220979173Y-130954959D01*
X221114861Y-130627380D01*
X221311849Y-130332567D01*
X221562567Y-130081849D01*
X221857380Y-129884861D01*
X222184959Y-129749173D01*
X222358838Y-129714586D01*
X222532714Y-129680000D01*
X222887286Y-129680000D01*
X223061162Y-129714586D01*
G37*
G36*
X156148817Y-129178103D02*
G01*
X156266487Y-129201509D01*
X156432752Y-129270378D01*
X156582386Y-129370360D01*
X156709640Y-129497614D01*
X156809622Y-129647248D01*
X156878491Y-129813513D01*
X156913600Y-129990018D01*
X156913600Y-130169982D01*
X156878491Y-130346487D01*
X156809622Y-130512752D01*
X156709640Y-130662386D01*
X156582386Y-130789640D01*
X156432752Y-130889622D01*
X156266487Y-130958491D01*
X156148817Y-130981897D01*
X156089983Y-130993600D01*
X155910017Y-130993600D01*
X155851183Y-130981897D01*
X155733513Y-130958491D01*
X155567248Y-130889622D01*
X155417614Y-130789640D01*
X155290360Y-130662386D01*
X155190378Y-130512752D01*
X155121509Y-130346487D01*
X155086400Y-130169982D01*
X155086400Y-129990018D01*
X155121509Y-129813513D01*
X155190378Y-129647248D01*
X155290360Y-129497614D01*
X155417614Y-129370360D01*
X155567248Y-129270378D01*
X155733513Y-129201509D01*
X155851183Y-129178103D01*
X155910017Y-129166400D01*
X156089983Y-129166400D01*
X156148817Y-129178103D01*
G37*
G36*
X153608817Y-129178103D02*
G01*
X153726487Y-129201509D01*
X153892752Y-129270378D01*
X154042386Y-129370360D01*
X154169640Y-129497614D01*
X154269622Y-129647248D01*
X154338491Y-129813513D01*
X154373600Y-129990018D01*
X154373600Y-130169982D01*
X154338491Y-130346487D01*
X154269622Y-130512752D01*
X154169640Y-130662386D01*
X154042386Y-130789640D01*
X153892752Y-130889622D01*
X153726487Y-130958491D01*
X153608817Y-130981897D01*
X153549983Y-130993600D01*
X153370017Y-130993600D01*
X153311183Y-130981897D01*
X153193513Y-130958491D01*
X153027248Y-130889622D01*
X152877614Y-130789640D01*
X152750360Y-130662386D01*
X152650378Y-130512752D01*
X152581509Y-130346487D01*
X152546400Y-130169982D01*
X152546400Y-129990018D01*
X152581509Y-129813513D01*
X152650378Y-129647248D01*
X152750360Y-129497614D01*
X152877614Y-129370360D01*
X153027248Y-129270378D01*
X153193513Y-129201509D01*
X153311183Y-129178103D01*
X153370017Y-129166400D01*
X153549983Y-129166400D01*
X153608817Y-129178103D01*
G37*
G36*
X153608817Y-126638103D02*
G01*
X153726487Y-126661509D01*
X153892752Y-126730378D01*
X154042386Y-126830360D01*
X154169640Y-126957614D01*
X154269622Y-127107248D01*
X154338491Y-127273513D01*
X154373600Y-127450018D01*
X154373600Y-127629982D01*
X154338491Y-127806487D01*
X154269622Y-127972752D01*
X154169640Y-128122386D01*
X154042386Y-128249640D01*
X153892752Y-128349622D01*
X153726487Y-128418491D01*
X153608817Y-128441897D01*
X153549983Y-128453600D01*
X153370017Y-128453600D01*
X153311183Y-128441897D01*
X153193513Y-128418491D01*
X153027248Y-128349622D01*
X152877614Y-128249640D01*
X152750360Y-128122386D01*
X152650378Y-127972752D01*
X152581509Y-127806487D01*
X152546400Y-127629982D01*
X152546400Y-127450018D01*
X152581509Y-127273513D01*
X152650378Y-127107248D01*
X152750360Y-126957614D01*
X152877614Y-126830360D01*
X153027248Y-126730378D01*
X153193513Y-126661509D01*
X153311183Y-126638103D01*
X153370017Y-126626400D01*
X153549983Y-126626400D01*
X153608817Y-126638103D01*
G37*
G36*
X156148817Y-126638103D02*
G01*
X156266487Y-126661509D01*
X156432752Y-126730378D01*
X156582386Y-126830360D01*
X156709640Y-126957614D01*
X156809622Y-127107248D01*
X156878491Y-127273513D01*
X156913600Y-127450018D01*
X156913600Y-127629982D01*
X156878491Y-127806487D01*
X156809622Y-127972752D01*
X156709640Y-128122386D01*
X156582386Y-128249640D01*
X156432752Y-128349622D01*
X156266487Y-128418491D01*
X156148817Y-128441897D01*
X156089983Y-128453600D01*
X155910017Y-128453600D01*
X155851183Y-128441897D01*
X155733513Y-128418491D01*
X155567248Y-128349622D01*
X155417614Y-128249640D01*
X155290360Y-128122386D01*
X155190378Y-127972752D01*
X155121509Y-127806487D01*
X155086400Y-127629982D01*
X155086400Y-127450018D01*
X155121509Y-127273513D01*
X155190378Y-127107248D01*
X155290360Y-126957614D01*
X155417614Y-126830360D01*
X155567248Y-126730378D01*
X155733513Y-126661509D01*
X155851183Y-126638103D01*
X155910017Y-126626400D01*
X156089983Y-126626400D01*
X156148817Y-126638103D01*
G37*
G36*
X156148817Y-124098103D02*
G01*
X156266487Y-124121509D01*
X156432752Y-124190378D01*
X156582386Y-124290360D01*
X156709640Y-124417614D01*
X156809622Y-124567248D01*
X156878491Y-124733513D01*
X156913600Y-124910018D01*
X156913600Y-125089982D01*
X156878491Y-125266487D01*
X156809622Y-125432752D01*
X156709640Y-125582386D01*
X156582386Y-125709640D01*
X156432752Y-125809622D01*
X156266487Y-125878491D01*
X156148817Y-125901897D01*
X156089983Y-125913600D01*
X155910017Y-125913600D01*
X155851183Y-125901897D01*
X155733513Y-125878491D01*
X155567248Y-125809622D01*
X155417614Y-125709640D01*
X155290360Y-125582386D01*
X155190378Y-125432752D01*
X155121509Y-125266487D01*
X155086400Y-125089982D01*
X155086400Y-124910018D01*
X155121509Y-124733513D01*
X155190378Y-124567248D01*
X155290360Y-124417614D01*
X155417614Y-124290360D01*
X155567248Y-124190378D01*
X155733513Y-124121509D01*
X155851183Y-124098103D01*
X155910017Y-124086400D01*
X156089983Y-124086400D01*
X156148817Y-124098103D01*
G37*
G36*
X153608817Y-124098103D02*
G01*
X153726487Y-124121509D01*
X153892752Y-124190378D01*
X154042386Y-124290360D01*
X154169640Y-124417614D01*
X154269622Y-124567248D01*
X154338491Y-124733513D01*
X154373600Y-124910018D01*
X154373600Y-125089982D01*
X154338491Y-125266487D01*
X154269622Y-125432752D01*
X154169640Y-125582386D01*
X154042386Y-125709640D01*
X153892752Y-125809622D01*
X153726487Y-125878491D01*
X153608817Y-125901897D01*
X153549983Y-125913600D01*
X153370017Y-125913600D01*
X153311183Y-125901897D01*
X153193513Y-125878491D01*
X153027248Y-125809622D01*
X152877614Y-125709640D01*
X152750360Y-125582386D01*
X152650378Y-125432752D01*
X152581509Y-125266487D01*
X152546400Y-125089982D01*
X152546400Y-124910018D01*
X152581509Y-124733513D01*
X152650378Y-124567248D01*
X152750360Y-124417614D01*
X152877614Y-124290360D01*
X153027248Y-124190378D01*
X153193513Y-124121509D01*
X153311183Y-124098103D01*
X153370017Y-124086400D01*
X153549983Y-124086400D01*
X153608817Y-124098103D01*
G37*
G36*
X166150000Y-125400000D02*
G01*
X164350000Y-125400000D01*
X164350000Y-123600000D01*
X166150000Y-123600000D01*
X166150000Y-125400000D01*
G37*
G36*
X162914561Y-123623057D02*
G01*
X162972520Y-123634586D01*
X163136310Y-123702430D01*
X163283717Y-123800924D01*
X163409076Y-123926283D01*
X163507570Y-124073690D01*
X163575414Y-124237480D01*
X163610000Y-124411358D01*
X163610000Y-124588642D01*
X163575414Y-124762520D01*
X163507570Y-124926310D01*
X163409076Y-125073717D01*
X163283717Y-125199076D01*
X163136310Y-125297570D01*
X162972520Y-125365414D01*
X162914561Y-125376943D01*
X162798644Y-125400000D01*
X162621356Y-125400000D01*
X162505439Y-125376943D01*
X162447480Y-125365414D01*
X162283690Y-125297570D01*
X162136283Y-125199076D01*
X162010924Y-125073717D01*
X161912430Y-124926310D01*
X161844586Y-124762520D01*
X161810000Y-124588642D01*
X161810000Y-124411358D01*
X161844586Y-124237480D01*
X161912430Y-124073690D01*
X162010924Y-123926283D01*
X162136283Y-123800924D01*
X162283690Y-123702430D01*
X162447480Y-123634586D01*
X162505439Y-123623057D01*
X162621356Y-123600000D01*
X162798644Y-123600000D01*
X162914561Y-123623057D01*
G37*
G36*
X156148817Y-121558103D02*
G01*
X156266487Y-121581509D01*
X156432752Y-121650378D01*
X156582386Y-121750360D01*
X156709640Y-121877614D01*
X156809622Y-122027248D01*
X156878491Y-122193513D01*
X156913600Y-122370018D01*
X156913600Y-122549982D01*
X156878491Y-122726487D01*
X156809622Y-122892752D01*
X156709640Y-123042386D01*
X156582386Y-123169640D01*
X156432752Y-123269622D01*
X156266487Y-123338491D01*
X156148817Y-123361897D01*
X156089983Y-123373600D01*
X155910017Y-123373600D01*
X155851183Y-123361897D01*
X155733513Y-123338491D01*
X155567248Y-123269622D01*
X155417614Y-123169640D01*
X155290360Y-123042386D01*
X155190378Y-122892752D01*
X155121509Y-122726487D01*
X155086400Y-122549982D01*
X155086400Y-122370018D01*
X155121509Y-122193513D01*
X155190378Y-122027248D01*
X155290360Y-121877614D01*
X155417614Y-121750360D01*
X155567248Y-121650378D01*
X155733513Y-121581509D01*
X155851183Y-121558103D01*
X155910017Y-121546400D01*
X156089983Y-121546400D01*
X156148817Y-121558103D01*
G37*
G36*
X153608817Y-121558103D02*
G01*
X153726487Y-121581509D01*
X153892752Y-121650378D01*
X154042386Y-121750360D01*
X154169640Y-121877614D01*
X154269622Y-122027248D01*
X154338491Y-122193513D01*
X154373600Y-122370018D01*
X154373600Y-122549982D01*
X154338491Y-122726487D01*
X154269622Y-122892752D01*
X154169640Y-123042386D01*
X154042386Y-123169640D01*
X153892752Y-123269622D01*
X153726487Y-123338491D01*
X153608817Y-123361897D01*
X153549983Y-123373600D01*
X153370017Y-123373600D01*
X153311183Y-123361897D01*
X153193513Y-123338491D01*
X153027248Y-123269622D01*
X152877614Y-123169640D01*
X152750360Y-123042386D01*
X152650378Y-122892752D01*
X152581509Y-122726487D01*
X152546400Y-122549982D01*
X152546400Y-122370018D01*
X152581509Y-122193513D01*
X152650378Y-122027248D01*
X152750360Y-121877614D01*
X152877614Y-121750360D01*
X153027248Y-121650378D01*
X153193513Y-121581509D01*
X153311183Y-121558103D01*
X153370017Y-121546400D01*
X153549983Y-121546400D01*
X153608817Y-121558103D01*
G37*
G36*
X153608817Y-119018103D02*
G01*
X153726487Y-119041509D01*
X153892752Y-119110378D01*
X154042386Y-119210360D01*
X154169640Y-119337614D01*
X154269622Y-119487248D01*
X154338491Y-119653513D01*
X154373600Y-119830018D01*
X154373600Y-120009982D01*
X154338491Y-120186487D01*
X154269622Y-120352752D01*
X154169640Y-120502386D01*
X154042386Y-120629640D01*
X153892752Y-120729622D01*
X153726487Y-120798491D01*
X153608817Y-120821897D01*
X153549983Y-120833600D01*
X153370017Y-120833600D01*
X153311183Y-120821897D01*
X153193513Y-120798491D01*
X153027248Y-120729622D01*
X152877614Y-120629640D01*
X152750360Y-120502386D01*
X152650378Y-120352752D01*
X152581509Y-120186487D01*
X152546400Y-120009982D01*
X152546400Y-119830018D01*
X152581509Y-119653513D01*
X152650378Y-119487248D01*
X152750360Y-119337614D01*
X152877614Y-119210360D01*
X153027248Y-119110378D01*
X153193513Y-119041509D01*
X153311183Y-119018103D01*
X153370017Y-119006400D01*
X153549983Y-119006400D01*
X153608817Y-119018103D01*
G37*
G36*
X156148817Y-119018103D02*
G01*
X156266487Y-119041509D01*
X156432752Y-119110378D01*
X156582386Y-119210360D01*
X156709640Y-119337614D01*
X156809622Y-119487248D01*
X156878491Y-119653513D01*
X156913600Y-119830018D01*
X156913600Y-120009982D01*
X156878491Y-120186487D01*
X156809622Y-120352752D01*
X156709640Y-120502386D01*
X156582386Y-120629640D01*
X156432752Y-120729622D01*
X156266487Y-120798491D01*
X156148817Y-120821897D01*
X156089983Y-120833600D01*
X155910017Y-120833600D01*
X155851183Y-120821897D01*
X155733513Y-120798491D01*
X155567248Y-120729622D01*
X155417614Y-120629640D01*
X155290360Y-120502386D01*
X155190378Y-120352752D01*
X155121509Y-120186487D01*
X155086400Y-120009982D01*
X155086400Y-119830018D01*
X155121509Y-119653513D01*
X155190378Y-119487248D01*
X155290360Y-119337614D01*
X155417614Y-119210360D01*
X155567248Y-119110378D01*
X155733513Y-119041509D01*
X155851183Y-119018103D01*
X155910017Y-119006400D01*
X156089983Y-119006400D01*
X156148817Y-119018103D01*
G37*
G36*
X166150000Y-119650000D02*
G01*
X164350000Y-119650000D01*
X164350000Y-117850000D01*
X166150000Y-117850000D01*
X166150000Y-119650000D01*
G37*
G36*
X162914561Y-117873057D02*
G01*
X162972520Y-117884586D01*
X163136310Y-117952430D01*
X163283717Y-118050924D01*
X163409076Y-118176283D01*
X163507570Y-118323690D01*
X163575414Y-118487480D01*
X163610000Y-118661358D01*
X163610000Y-118838642D01*
X163575414Y-119012520D01*
X163507570Y-119176310D01*
X163409076Y-119323717D01*
X163283717Y-119449076D01*
X163136310Y-119547570D01*
X162972520Y-119615414D01*
X162914561Y-119626943D01*
X162798644Y-119650000D01*
X162621356Y-119650000D01*
X162505439Y-119626943D01*
X162447480Y-119615414D01*
X162283690Y-119547570D01*
X162136283Y-119449076D01*
X162010924Y-119323717D01*
X161912430Y-119176310D01*
X161844586Y-119012520D01*
X161810000Y-118838642D01*
X161810000Y-118661358D01*
X161844586Y-118487480D01*
X161912430Y-118323690D01*
X162010924Y-118176283D01*
X162136283Y-118050924D01*
X162283690Y-117952430D01*
X162447480Y-117884586D01*
X162505439Y-117873057D01*
X162621356Y-117850000D01*
X162798644Y-117850000D01*
X162914561Y-117873057D01*
G37*
G36*
X156148817Y-116478103D02*
G01*
X156266487Y-116501509D01*
X156432752Y-116570378D01*
X156582386Y-116670360D01*
X156709640Y-116797614D01*
X156809622Y-116947248D01*
X156878491Y-117113513D01*
X156913600Y-117290018D01*
X156913600Y-117469982D01*
X156878491Y-117646487D01*
X156809622Y-117812752D01*
X156709640Y-117962386D01*
X156582386Y-118089640D01*
X156432752Y-118189622D01*
X156266487Y-118258491D01*
X156148817Y-118281897D01*
X156089983Y-118293600D01*
X155910017Y-118293600D01*
X155851183Y-118281897D01*
X155733513Y-118258491D01*
X155567248Y-118189622D01*
X155417614Y-118089640D01*
X155290360Y-117962386D01*
X155190378Y-117812752D01*
X155121509Y-117646487D01*
X155086400Y-117469982D01*
X155086400Y-117290018D01*
X155121509Y-117113513D01*
X155190378Y-116947248D01*
X155290360Y-116797614D01*
X155417614Y-116670360D01*
X155567248Y-116570378D01*
X155733513Y-116501509D01*
X155851183Y-116478103D01*
X155910017Y-116466400D01*
X156089983Y-116466400D01*
X156148817Y-116478103D01*
G37*
G36*
X153608817Y-116478103D02*
G01*
X153726487Y-116501509D01*
X153892752Y-116570378D01*
X154042386Y-116670360D01*
X154169640Y-116797614D01*
X154269622Y-116947248D01*
X154338491Y-117113513D01*
X154373600Y-117290018D01*
X154373600Y-117469982D01*
X154338491Y-117646487D01*
X154269622Y-117812752D01*
X154169640Y-117962386D01*
X154042386Y-118089640D01*
X153892752Y-118189622D01*
X153726487Y-118258491D01*
X153608817Y-118281897D01*
X153549983Y-118293600D01*
X153370017Y-118293600D01*
X153311183Y-118281897D01*
X153193513Y-118258491D01*
X153027248Y-118189622D01*
X152877614Y-118089640D01*
X152750360Y-117962386D01*
X152650378Y-117812752D01*
X152581509Y-117646487D01*
X152546400Y-117469982D01*
X152546400Y-117290018D01*
X152581509Y-117113513D01*
X152650378Y-116947248D01*
X152750360Y-116797614D01*
X152877614Y-116670360D01*
X153027248Y-116570378D01*
X153193513Y-116501509D01*
X153311183Y-116478103D01*
X153370017Y-116466400D01*
X153549983Y-116466400D01*
X153608817Y-116478103D01*
G37*
G36*
X156148817Y-113938103D02*
G01*
X156266487Y-113961509D01*
X156432752Y-114030378D01*
X156582386Y-114130360D01*
X156709640Y-114257614D01*
X156809622Y-114407248D01*
X156878491Y-114573513D01*
X156913600Y-114750018D01*
X156913600Y-114929982D01*
X156878491Y-115106487D01*
X156809622Y-115272752D01*
X156709640Y-115422386D01*
X156582386Y-115549640D01*
X156432752Y-115649622D01*
X156266487Y-115718491D01*
X156148817Y-115741897D01*
X156089983Y-115753600D01*
X155910017Y-115753600D01*
X155851183Y-115741897D01*
X155733513Y-115718491D01*
X155567248Y-115649622D01*
X155417614Y-115549640D01*
X155290360Y-115422386D01*
X155190378Y-115272752D01*
X155121509Y-115106487D01*
X155086400Y-114929982D01*
X155086400Y-114750018D01*
X155121509Y-114573513D01*
X155190378Y-114407248D01*
X155290360Y-114257614D01*
X155417614Y-114130360D01*
X155567248Y-114030378D01*
X155733513Y-113961509D01*
X155851183Y-113938103D01*
X155910017Y-113926400D01*
X156089983Y-113926400D01*
X156148817Y-113938103D01*
G37*
G36*
X153608817Y-113938103D02*
G01*
X153726487Y-113961509D01*
X153892752Y-114030378D01*
X154042386Y-114130360D01*
X154169640Y-114257614D01*
X154269622Y-114407248D01*
X154338491Y-114573513D01*
X154373600Y-114750018D01*
X154373600Y-114929982D01*
X154338491Y-115106487D01*
X154269622Y-115272752D01*
X154169640Y-115422386D01*
X154042386Y-115549640D01*
X153892752Y-115649622D01*
X153726487Y-115718491D01*
X153608817Y-115741897D01*
X153549983Y-115753600D01*
X153370017Y-115753600D01*
X153311183Y-115741897D01*
X153193513Y-115718491D01*
X153027248Y-115649622D01*
X152877614Y-115549640D01*
X152750360Y-115422386D01*
X152650378Y-115272752D01*
X152581509Y-115106487D01*
X152546400Y-114929982D01*
X152546400Y-114750018D01*
X152581509Y-114573513D01*
X152650378Y-114407248D01*
X152750360Y-114257614D01*
X152877614Y-114130360D01*
X153027248Y-114030378D01*
X153193513Y-113961509D01*
X153311183Y-113938103D01*
X153370017Y-113926400D01*
X153549983Y-113926400D01*
X153608817Y-113938103D01*
G37*
G36*
X220800000Y-115300000D02*
G01*
X217200000Y-115300000D01*
X217200000Y-111700000D01*
X220800000Y-111700000D01*
X220800000Y-115300000D01*
G37*
G36*
X225946270Y-111714648D02*
G01*
X226086921Y-111757314D01*
X226216542Y-111826597D01*
X226330159Y-111919841D01*
X226423403Y-112033458D01*
X226492686Y-112163079D01*
X226535352Y-112303730D01*
X226550000Y-112452454D01*
X226550000Y-114547546D01*
X226535352Y-114696270D01*
X226492686Y-114836921D01*
X226423403Y-114966542D01*
X226330159Y-115080159D01*
X226216542Y-115173403D01*
X226086921Y-115242686D01*
X225946270Y-115285352D01*
X225797546Y-115300000D01*
X224202454Y-115300000D01*
X224053730Y-115285352D01*
X223913079Y-115242686D01*
X223783458Y-115173403D01*
X223669841Y-115080159D01*
X223576597Y-114966542D01*
X223507314Y-114836921D01*
X223464648Y-114696270D01*
X223450000Y-114547546D01*
X223450000Y-112452454D01*
X223464648Y-112303730D01*
X223507314Y-112163079D01*
X223576597Y-112033458D01*
X223669841Y-111919841D01*
X223783458Y-111826597D01*
X223913079Y-111757314D01*
X224053730Y-111714648D01*
X224202454Y-111700000D01*
X225797546Y-111700000D01*
X225946270Y-111714648D01*
G37*
G36*
X153608817Y-111398103D02*
G01*
X153726487Y-111421509D01*
X153892752Y-111490378D01*
X154042386Y-111590360D01*
X154169640Y-111717614D01*
X154269622Y-111867248D01*
X154338491Y-112033513D01*
X154373600Y-112210018D01*
X154373600Y-112389982D01*
X154338491Y-112566487D01*
X154269622Y-112732752D01*
X154169640Y-112882386D01*
X154042386Y-113009640D01*
X153892752Y-113109622D01*
X153726487Y-113178491D01*
X153608817Y-113201897D01*
X153549983Y-113213600D01*
X153370017Y-113213600D01*
X153311183Y-113201897D01*
X153193513Y-113178491D01*
X153027248Y-113109622D01*
X152877614Y-113009640D01*
X152750360Y-112882386D01*
X152650378Y-112732752D01*
X152581509Y-112566487D01*
X152546400Y-112389982D01*
X152546400Y-112210018D01*
X152581509Y-112033513D01*
X152650378Y-111867248D01*
X152750360Y-111717614D01*
X152877614Y-111590360D01*
X153027248Y-111490378D01*
X153193513Y-111421509D01*
X153311183Y-111398103D01*
X153370017Y-111386400D01*
X153549983Y-111386400D01*
X153608817Y-111398103D01*
G37*
G36*
X156148817Y-111398103D02*
G01*
X156266487Y-111421509D01*
X156432752Y-111490378D01*
X156582386Y-111590360D01*
X156709640Y-111717614D01*
X156809622Y-111867248D01*
X156878491Y-112033513D01*
X156913600Y-112210018D01*
X156913600Y-112389982D01*
X156878491Y-112566487D01*
X156809622Y-112732752D01*
X156709640Y-112882386D01*
X156582386Y-113009640D01*
X156432752Y-113109622D01*
X156266487Y-113178491D01*
X156148817Y-113201897D01*
X156089983Y-113213600D01*
X155910017Y-113213600D01*
X155851183Y-113201897D01*
X155733513Y-113178491D01*
X155567248Y-113109622D01*
X155417614Y-113009640D01*
X155290360Y-112882386D01*
X155190378Y-112732752D01*
X155121509Y-112566487D01*
X155086400Y-112389982D01*
X155086400Y-112210018D01*
X155121509Y-112033513D01*
X155190378Y-111867248D01*
X155290360Y-111717614D01*
X155417614Y-111590360D01*
X155567248Y-111490378D01*
X155733513Y-111421509D01*
X155851183Y-111398103D01*
X155910017Y-111386400D01*
X156089983Y-111386400D01*
X156148817Y-111398103D01*
G37*
G36*
X207100000Y-112350000D02*
G01*
X205400000Y-112350000D01*
X205400000Y-110650000D01*
X207100000Y-110650000D01*
X207100000Y-112350000D01*
G37*
G36*
X208997934Y-110682664D02*
G01*
X209152625Y-110746739D01*
X209152626Y-110746740D01*
X209291844Y-110839762D01*
X209410238Y-110958156D01*
X209410239Y-110958158D01*
X209503261Y-111097375D01*
X209567336Y-111252066D01*
X209600000Y-111416281D01*
X209600000Y-111583719D01*
X209567336Y-111747934D01*
X209503261Y-111902625D01*
X209486979Y-111926992D01*
X209410238Y-112041844D01*
X209291844Y-112160238D01*
X209221762Y-112207065D01*
X209152625Y-112253261D01*
X208997934Y-112317336D01*
X208833719Y-112350000D01*
X208666281Y-112350000D01*
X208502066Y-112317336D01*
X208347375Y-112253261D01*
X208278238Y-112207065D01*
X208208156Y-112160238D01*
X208089762Y-112041844D01*
X208013021Y-111926992D01*
X207996739Y-111902625D01*
X207932664Y-111747934D01*
X207900000Y-111583719D01*
X207900000Y-111416281D01*
X207932664Y-111252066D01*
X207996739Y-111097375D01*
X208089761Y-110958158D01*
X208089762Y-110958156D01*
X208208156Y-110839762D01*
X208347374Y-110746740D01*
X208347375Y-110746739D01*
X208502066Y-110682664D01*
X208666281Y-110650000D01*
X208833719Y-110650000D01*
X208997934Y-110682664D01*
G37*
G36*
X211497934Y-110682664D02*
G01*
X211652625Y-110746739D01*
X211652626Y-110746740D01*
X211791844Y-110839762D01*
X211910238Y-110958156D01*
X211910239Y-110958158D01*
X212003261Y-111097375D01*
X212067336Y-111252066D01*
X212100000Y-111416281D01*
X212100000Y-111583719D01*
X212067336Y-111747934D01*
X212003261Y-111902625D01*
X211986979Y-111926992D01*
X211910238Y-112041844D01*
X211791844Y-112160238D01*
X211721762Y-112207065D01*
X211652625Y-112253261D01*
X211497934Y-112317336D01*
X211333719Y-112350000D01*
X211166281Y-112350000D01*
X211002066Y-112317336D01*
X210847375Y-112253261D01*
X210778238Y-112207065D01*
X210708156Y-112160238D01*
X210589762Y-112041844D01*
X210513021Y-111926992D01*
X210496739Y-111902625D01*
X210432664Y-111747934D01*
X210400000Y-111583719D01*
X210400000Y-111416281D01*
X210432664Y-111252066D01*
X210496739Y-111097375D01*
X210589761Y-110958158D01*
X210589762Y-110958156D01*
X210708156Y-110839762D01*
X210847374Y-110746740D01*
X210847375Y-110746739D01*
X211002066Y-110682664D01*
X211166281Y-110650000D01*
X211333719Y-110650000D01*
X211497934Y-110682664D01*
G37*
G36*
X213997934Y-110682664D02*
G01*
X214152625Y-110746739D01*
X214152626Y-110746740D01*
X214291844Y-110839762D01*
X214410238Y-110958156D01*
X214410239Y-110958158D01*
X214503261Y-111097375D01*
X214567336Y-111252066D01*
X214600000Y-111416281D01*
X214600000Y-111583719D01*
X214567336Y-111747934D01*
X214503261Y-111902625D01*
X214486979Y-111926992D01*
X214410238Y-112041844D01*
X214291844Y-112160238D01*
X214221762Y-112207065D01*
X214152625Y-112253261D01*
X213997934Y-112317336D01*
X213833719Y-112350000D01*
X213666281Y-112350000D01*
X213502066Y-112317336D01*
X213347375Y-112253261D01*
X213278238Y-112207065D01*
X213208156Y-112160238D01*
X213089762Y-112041844D01*
X213013021Y-111926992D01*
X212996739Y-111902625D01*
X212932664Y-111747934D01*
X212900000Y-111583719D01*
X212900000Y-111416281D01*
X212932664Y-111252066D01*
X212996739Y-111097375D01*
X213089761Y-110958158D01*
X213089762Y-110958156D01*
X213208156Y-110839762D01*
X213347374Y-110746740D01*
X213347375Y-110746739D01*
X213502066Y-110682664D01*
X213666281Y-110650000D01*
X213833719Y-110650000D01*
X213997934Y-110682664D01*
G37*
G36*
X156148817Y-108858103D02*
G01*
X156266487Y-108881509D01*
X156432752Y-108950378D01*
X156582386Y-109050360D01*
X156709640Y-109177614D01*
X156809622Y-109327248D01*
X156878491Y-109493513D01*
X156913600Y-109670018D01*
X156913600Y-109849982D01*
X156878491Y-110026487D01*
X156809622Y-110192752D01*
X156709640Y-110342386D01*
X156582386Y-110469640D01*
X156432752Y-110569622D01*
X156266487Y-110638491D01*
X156148817Y-110661897D01*
X156089983Y-110673600D01*
X155910017Y-110673600D01*
X155851183Y-110661897D01*
X155733513Y-110638491D01*
X155567248Y-110569622D01*
X155417614Y-110469640D01*
X155290360Y-110342386D01*
X155190378Y-110192752D01*
X155121509Y-110026487D01*
X155086400Y-109849982D01*
X155086400Y-109670018D01*
X155121509Y-109493513D01*
X155190378Y-109327248D01*
X155290360Y-109177614D01*
X155417614Y-109050360D01*
X155567248Y-108950378D01*
X155733513Y-108881509D01*
X155851183Y-108858103D01*
X155910017Y-108846400D01*
X156089983Y-108846400D01*
X156148817Y-108858103D01*
G37*
G36*
X153608817Y-108858103D02*
G01*
X153726487Y-108881509D01*
X153892752Y-108950378D01*
X154042386Y-109050360D01*
X154169640Y-109177614D01*
X154269622Y-109327248D01*
X154338491Y-109493513D01*
X154373600Y-109670018D01*
X154373600Y-109849982D01*
X154338491Y-110026487D01*
X154269622Y-110192752D01*
X154169640Y-110342386D01*
X154042386Y-110469640D01*
X153892752Y-110569622D01*
X153726487Y-110638491D01*
X153608817Y-110661897D01*
X153549983Y-110673600D01*
X153370017Y-110673600D01*
X153311183Y-110661897D01*
X153193513Y-110638491D01*
X153027248Y-110569622D01*
X152877614Y-110469640D01*
X152750360Y-110342386D01*
X152650378Y-110192752D01*
X152581509Y-110026487D01*
X152546400Y-109849982D01*
X152546400Y-109670018D01*
X152581509Y-109493513D01*
X152650378Y-109327248D01*
X152750360Y-109177614D01*
X152877614Y-109050360D01*
X153027248Y-108950378D01*
X153193513Y-108881509D01*
X153311183Y-108858103D01*
X153370017Y-108846400D01*
X153549983Y-108846400D01*
X153608817Y-108858103D01*
G37*
G36*
X223095656Y-107017050D02*
G01*
X223259757Y-107066829D01*
X223410987Y-107147663D01*
X223543547Y-107256453D01*
X223652337Y-107389013D01*
X223733171Y-107540243D01*
X223782950Y-107704344D01*
X223800000Y-107877454D01*
X223800000Y-109722546D01*
X223782950Y-109895656D01*
X223733171Y-110059757D01*
X223652337Y-110210987D01*
X223543547Y-110343547D01*
X223410987Y-110452337D01*
X223259757Y-110533171D01*
X223095656Y-110582950D01*
X222922546Y-110600000D01*
X221077454Y-110600000D01*
X220904344Y-110582950D01*
X220740243Y-110533171D01*
X220589013Y-110452337D01*
X220456453Y-110343547D01*
X220347663Y-110210987D01*
X220266829Y-110059757D01*
X220217050Y-109895656D01*
X220200000Y-109722546D01*
X220200000Y-107877454D01*
X220217050Y-107704344D01*
X220266829Y-107540243D01*
X220347663Y-107389013D01*
X220456453Y-107256453D01*
X220589013Y-107147663D01*
X220740243Y-107066829D01*
X220904344Y-107017050D01*
X221077454Y-107000000D01*
X222922546Y-107000000D01*
X223095656Y-107017050D01*
G37*
G36*
X176020000Y-110400000D02*
G01*
X174220000Y-110400000D01*
X174220000Y-108600000D01*
X176020000Y-108600000D01*
X176020000Y-110400000D01*
G37*
G36*
X172784561Y-108623057D02*
G01*
X172842520Y-108634586D01*
X173006310Y-108702430D01*
X173153717Y-108800924D01*
X173279076Y-108926283D01*
X173377570Y-109073690D01*
X173445414Y-109237480D01*
X173480000Y-109411358D01*
X173480000Y-109588642D01*
X173445414Y-109762520D01*
X173377570Y-109926310D01*
X173279076Y-110073717D01*
X173153717Y-110199076D01*
X173006310Y-110297570D01*
X172842520Y-110365414D01*
X172784561Y-110376943D01*
X172668644Y-110400000D01*
X172491356Y-110400000D01*
X172375439Y-110376943D01*
X172317480Y-110365414D01*
X172153690Y-110297570D01*
X172006283Y-110199076D01*
X171880924Y-110073717D01*
X171782430Y-109926310D01*
X171714586Y-109762520D01*
X171680000Y-109588642D01*
X171680000Y-109411358D01*
X171714586Y-109237480D01*
X171782430Y-109073690D01*
X171880924Y-108926283D01*
X172006283Y-108800924D01*
X172153690Y-108702430D01*
X172317480Y-108634586D01*
X172375439Y-108623057D01*
X172491356Y-108600000D01*
X172668644Y-108600000D01*
X172784561Y-108623057D01*
G37*
G36*
X170244561Y-108623057D02*
G01*
X170302520Y-108634586D01*
X170466310Y-108702430D01*
X170613717Y-108800924D01*
X170739076Y-108926283D01*
X170837570Y-109073690D01*
X170905414Y-109237480D01*
X170940000Y-109411358D01*
X170940000Y-109588642D01*
X170905414Y-109762520D01*
X170837570Y-109926310D01*
X170739076Y-110073717D01*
X170613717Y-110199076D01*
X170466310Y-110297570D01*
X170302520Y-110365414D01*
X170244561Y-110376943D01*
X170128644Y-110400000D01*
X169951356Y-110400000D01*
X169835439Y-110376943D01*
X169777480Y-110365414D01*
X169613690Y-110297570D01*
X169466283Y-110199076D01*
X169340924Y-110073717D01*
X169242430Y-109926310D01*
X169174586Y-109762520D01*
X169140000Y-109588642D01*
X169140000Y-109411358D01*
X169174586Y-109237480D01*
X169242430Y-109073690D01*
X169340924Y-108926283D01*
X169466283Y-108800924D01*
X169613690Y-108702430D01*
X169777480Y-108634586D01*
X169835439Y-108623057D01*
X169951356Y-108600000D01*
X170128644Y-108600000D01*
X170244561Y-108623057D01*
G37*
G36*
X167704561Y-108623057D02*
G01*
X167762520Y-108634586D01*
X167926310Y-108702430D01*
X168073717Y-108800924D01*
X168199076Y-108926283D01*
X168297570Y-109073690D01*
X168365414Y-109237480D01*
X168400000Y-109411358D01*
X168400000Y-109588642D01*
X168365414Y-109762520D01*
X168297570Y-109926310D01*
X168199076Y-110073717D01*
X168073717Y-110199076D01*
X167926310Y-110297570D01*
X167762520Y-110365414D01*
X167704561Y-110376943D01*
X167588644Y-110400000D01*
X167411356Y-110400000D01*
X167295439Y-110376943D01*
X167237480Y-110365414D01*
X167073690Y-110297570D01*
X166926283Y-110199076D01*
X166800924Y-110073717D01*
X166702430Y-109926310D01*
X166634586Y-109762520D01*
X166600000Y-109588642D01*
X166600000Y-109411358D01*
X166634586Y-109237480D01*
X166702430Y-109073690D01*
X166800924Y-108926283D01*
X166926283Y-108800924D01*
X167073690Y-108702430D01*
X167237480Y-108634586D01*
X167295439Y-108623057D01*
X167411356Y-108600000D01*
X167588644Y-108600000D01*
X167704561Y-108623057D01*
G37*
G36*
X156148817Y-106318103D02*
G01*
X156266487Y-106341509D01*
X156432752Y-106410378D01*
X156582386Y-106510360D01*
X156709640Y-106637614D01*
X156809622Y-106787248D01*
X156878491Y-106953513D01*
X156913600Y-107130018D01*
X156913600Y-107309982D01*
X156878491Y-107486487D01*
X156809622Y-107652752D01*
X156709640Y-107802386D01*
X156582386Y-107929640D01*
X156432752Y-108029622D01*
X156266487Y-108098491D01*
X156148817Y-108121897D01*
X156089983Y-108133600D01*
X155910017Y-108133600D01*
X155851183Y-108121897D01*
X155733513Y-108098491D01*
X155567248Y-108029622D01*
X155417614Y-107929640D01*
X155290360Y-107802386D01*
X155190378Y-107652752D01*
X155121509Y-107486487D01*
X155086400Y-107309982D01*
X155086400Y-107130018D01*
X155121509Y-106953513D01*
X155190378Y-106787248D01*
X155290360Y-106637614D01*
X155417614Y-106510360D01*
X155567248Y-106410378D01*
X155733513Y-106341509D01*
X155851183Y-106318103D01*
X155910017Y-106306400D01*
X156089983Y-106306400D01*
X156148817Y-106318103D01*
G37*
G36*
X153608817Y-106318103D02*
G01*
X153726487Y-106341509D01*
X153892752Y-106410378D01*
X154042386Y-106510360D01*
X154169640Y-106637614D01*
X154269622Y-106787248D01*
X154338491Y-106953513D01*
X154373600Y-107130018D01*
X154373600Y-107309982D01*
X154338491Y-107486487D01*
X154269622Y-107652752D01*
X154169640Y-107802386D01*
X154042386Y-107929640D01*
X153892752Y-108029622D01*
X153726487Y-108098491D01*
X153608817Y-108121897D01*
X153549983Y-108133600D01*
X153370017Y-108133600D01*
X153311183Y-108121897D01*
X153193513Y-108098491D01*
X153027248Y-108029622D01*
X152877614Y-107929640D01*
X152750360Y-107802386D01*
X152650378Y-107652752D01*
X152581509Y-107486487D01*
X152546400Y-107309982D01*
X152546400Y-107130018D01*
X152581509Y-106953513D01*
X152650378Y-106787248D01*
X152750360Y-106637614D01*
X152877614Y-106510360D01*
X153027248Y-106410378D01*
X153193513Y-106341509D01*
X153311183Y-106318103D01*
X153370017Y-106306400D01*
X153549983Y-106306400D01*
X153608817Y-106318103D01*
G37*
G36*
X153608817Y-103778103D02*
G01*
X153726487Y-103801509D01*
X153892752Y-103870378D01*
X154042386Y-103970360D01*
X154169640Y-104097614D01*
X154269622Y-104247248D01*
X154338491Y-104413513D01*
X154373600Y-104590018D01*
X154373600Y-104769982D01*
X154338491Y-104946487D01*
X154269622Y-105112752D01*
X154169640Y-105262386D01*
X154042386Y-105389640D01*
X153892752Y-105489622D01*
X153726487Y-105558491D01*
X153608817Y-105581897D01*
X153549983Y-105593600D01*
X153370017Y-105593600D01*
X153311183Y-105581897D01*
X153193513Y-105558491D01*
X153027248Y-105489622D01*
X152877614Y-105389640D01*
X152750360Y-105262386D01*
X152650378Y-105112752D01*
X152581509Y-104946487D01*
X152546400Y-104769982D01*
X152546400Y-104590018D01*
X152581509Y-104413513D01*
X152650378Y-104247248D01*
X152750360Y-104097614D01*
X152877614Y-103970360D01*
X153027248Y-103870378D01*
X153193513Y-103801509D01*
X153311183Y-103778103D01*
X153370017Y-103766400D01*
X153549983Y-103766400D01*
X153608817Y-103778103D01*
G37*
G36*
X156148817Y-103778103D02*
G01*
X156266487Y-103801509D01*
X156432752Y-103870378D01*
X156582386Y-103970360D01*
X156709640Y-104097614D01*
X156809622Y-104247248D01*
X156878491Y-104413513D01*
X156913600Y-104590018D01*
X156913600Y-104769982D01*
X156878491Y-104946487D01*
X156809622Y-105112752D01*
X156709640Y-105262386D01*
X156582386Y-105389640D01*
X156432752Y-105489622D01*
X156266487Y-105558491D01*
X156148817Y-105581897D01*
X156089983Y-105593600D01*
X155910017Y-105593600D01*
X155851183Y-105581897D01*
X155733513Y-105558491D01*
X155567248Y-105489622D01*
X155417614Y-105389640D01*
X155290360Y-105262386D01*
X155190378Y-105112752D01*
X155121509Y-104946487D01*
X155086400Y-104769982D01*
X155086400Y-104590018D01*
X155121509Y-104413513D01*
X155190378Y-104247248D01*
X155290360Y-104097614D01*
X155417614Y-103970360D01*
X155567248Y-103870378D01*
X155733513Y-103801509D01*
X155851183Y-103778103D01*
X155910017Y-103766400D01*
X156089983Y-103766400D01*
X156148817Y-103778103D01*
G37*
G36*
X162302390Y-101479782D02*
G01*
X162452118Y-101509565D01*
X162568960Y-101557963D01*
X162734199Y-101626407D01*
X162734200Y-101626408D01*
X162988068Y-101796036D01*
X163203964Y-102011932D01*
X163203965Y-102011934D01*
X163373593Y-102265801D01*
X163490435Y-102547883D01*
X163550000Y-102847337D01*
X163550000Y-103152663D01*
X163490435Y-103452117D01*
X163373593Y-103734199D01*
X163373592Y-103734200D01*
X163203964Y-103988068D01*
X162988068Y-104203964D01*
X162923288Y-104247248D01*
X162734199Y-104373593D01*
X162568960Y-104442037D01*
X162452118Y-104490435D01*
X162302390Y-104520217D01*
X162152663Y-104550000D01*
X161847337Y-104550000D01*
X161697610Y-104520217D01*
X161547882Y-104490435D01*
X161431040Y-104442037D01*
X161265801Y-104373593D01*
X161076712Y-104247248D01*
X161011932Y-104203964D01*
X160796036Y-103988068D01*
X160626408Y-103734200D01*
X160626407Y-103734199D01*
X160509565Y-103452117D01*
X160450000Y-103152663D01*
X160450000Y-102847337D01*
X160509565Y-102547883D01*
X160626407Y-102265801D01*
X160796035Y-102011934D01*
X160796036Y-102011932D01*
X161011932Y-101796036D01*
X161265800Y-101626408D01*
X161265801Y-101626407D01*
X161431040Y-101557963D01*
X161547882Y-101509565D01*
X161697610Y-101479783D01*
X161847337Y-101450000D01*
X162152663Y-101450000D01*
X162302390Y-101479782D01*
G37*
G36*
X227302390Y-101479782D02*
G01*
X227452118Y-101509565D01*
X227568960Y-101557963D01*
X227734199Y-101626407D01*
X227734200Y-101626408D01*
X227988068Y-101796036D01*
X228203964Y-102011932D01*
X228203965Y-102011934D01*
X228373593Y-102265801D01*
X228490435Y-102547883D01*
X228550000Y-102847337D01*
X228550000Y-103152663D01*
X228490435Y-103452117D01*
X228373593Y-103734199D01*
X228373592Y-103734200D01*
X228203964Y-103988068D01*
X227988068Y-104203964D01*
X227923288Y-104247248D01*
X227734199Y-104373593D01*
X227568960Y-104442037D01*
X227452118Y-104490435D01*
X227302390Y-104520217D01*
X227152663Y-104550000D01*
X226847337Y-104550000D01*
X226697610Y-104520217D01*
X226547882Y-104490435D01*
X226431040Y-104442037D01*
X226265801Y-104373593D01*
X226076712Y-104247248D01*
X226011932Y-104203964D01*
X225796036Y-103988068D01*
X225626408Y-103734200D01*
X225626407Y-103734199D01*
X225509565Y-103452117D01*
X225450000Y-103152663D01*
X225450000Y-102847337D01*
X225509565Y-102547883D01*
X225626407Y-102265801D01*
X225796035Y-102011934D01*
X225796036Y-102011932D01*
X226011932Y-101796036D01*
X226265800Y-101626408D01*
X226265801Y-101626407D01*
X226431040Y-101557963D01*
X226547882Y-101509565D01*
X226697610Y-101479783D01*
X226847337Y-101450000D01*
X227152663Y-101450000D01*
X227302390Y-101479782D01*
G37*
G36*
X178560000Y-103900000D02*
G01*
X176760000Y-103900000D01*
X176760000Y-102100000D01*
X178560000Y-102100000D01*
X178560000Y-103900000D01*
G37*
G36*
X175324561Y-102123057D02*
G01*
X175382520Y-102134586D01*
X175546310Y-102202430D01*
X175693717Y-102300924D01*
X175819076Y-102426283D01*
X175917570Y-102573690D01*
X175985414Y-102737480D01*
X176020000Y-102911358D01*
X176020000Y-103088642D01*
X175985414Y-103262520D01*
X175917570Y-103426310D01*
X175819076Y-103573717D01*
X175693717Y-103699076D01*
X175546310Y-103797570D01*
X175546309Y-103797571D01*
X175546308Y-103797571D01*
X175498335Y-103817442D01*
X175382520Y-103865414D01*
X175324561Y-103876943D01*
X175208644Y-103900000D01*
X175031356Y-103900000D01*
X174915439Y-103876943D01*
X174857480Y-103865414D01*
X174741665Y-103817442D01*
X174693692Y-103797571D01*
X174693691Y-103797571D01*
X174693690Y-103797570D01*
X174546283Y-103699076D01*
X174420924Y-103573717D01*
X174322430Y-103426310D01*
X174254586Y-103262520D01*
X174220000Y-103088642D01*
X174220000Y-102911358D01*
X174254586Y-102737480D01*
X174322430Y-102573690D01*
X174420924Y-102426283D01*
X174546283Y-102300924D01*
X174693690Y-102202430D01*
X174857480Y-102134586D01*
X174915439Y-102123057D01*
X175031356Y-102100000D01*
X175208644Y-102100000D01*
X175324561Y-102123057D01*
G37*
G36*
X172784561Y-102123057D02*
G01*
X172842520Y-102134586D01*
X173006310Y-102202430D01*
X173153717Y-102300924D01*
X173279076Y-102426283D01*
X173377570Y-102573690D01*
X173445414Y-102737480D01*
X173480000Y-102911358D01*
X173480000Y-103088642D01*
X173445414Y-103262520D01*
X173377570Y-103426310D01*
X173279076Y-103573717D01*
X173153717Y-103699076D01*
X173006310Y-103797570D01*
X173006309Y-103797571D01*
X173006308Y-103797571D01*
X172958335Y-103817442D01*
X172842520Y-103865414D01*
X172784561Y-103876943D01*
X172668644Y-103900000D01*
X172491356Y-103900000D01*
X172375439Y-103876943D01*
X172317480Y-103865414D01*
X172201665Y-103817442D01*
X172153692Y-103797571D01*
X172153691Y-103797571D01*
X172153690Y-103797570D01*
X172006283Y-103699076D01*
X171880924Y-103573717D01*
X171782430Y-103426310D01*
X171714586Y-103262520D01*
X171680000Y-103088642D01*
X171680000Y-102911358D01*
X171714586Y-102737480D01*
X171782430Y-102573690D01*
X171880924Y-102426283D01*
X172006283Y-102300924D01*
X172153690Y-102202430D01*
X172317480Y-102134586D01*
X172375439Y-102123057D01*
X172491356Y-102100000D01*
X172668644Y-102100000D01*
X172784561Y-102123057D01*
G37*
G36*
X170244561Y-102123057D02*
G01*
X170302520Y-102134586D01*
X170466310Y-102202430D01*
X170613717Y-102300924D01*
X170739076Y-102426283D01*
X170837570Y-102573690D01*
X170905414Y-102737480D01*
X170940000Y-102911358D01*
X170940000Y-103088642D01*
X170905414Y-103262520D01*
X170837570Y-103426310D01*
X170739076Y-103573717D01*
X170613717Y-103699076D01*
X170466310Y-103797570D01*
X170466309Y-103797571D01*
X170466308Y-103797571D01*
X170418335Y-103817442D01*
X170302520Y-103865414D01*
X170244561Y-103876943D01*
X170128644Y-103900000D01*
X169951356Y-103900000D01*
X169835439Y-103876943D01*
X169777480Y-103865414D01*
X169661665Y-103817442D01*
X169613692Y-103797571D01*
X169613691Y-103797571D01*
X169613690Y-103797570D01*
X169466283Y-103699076D01*
X169340924Y-103573717D01*
X169242430Y-103426310D01*
X169174586Y-103262520D01*
X169140000Y-103088642D01*
X169140000Y-102911358D01*
X169174586Y-102737480D01*
X169242430Y-102573690D01*
X169340924Y-102426283D01*
X169466283Y-102300924D01*
X169613690Y-102202430D01*
X169777480Y-102134586D01*
X169835439Y-102123057D01*
X169951356Y-102100000D01*
X170128644Y-102100000D01*
X170244561Y-102123057D01*
G37*
G36*
X167704561Y-102123057D02*
G01*
X167762520Y-102134586D01*
X167926310Y-102202430D01*
X168073717Y-102300924D01*
X168199076Y-102426283D01*
X168297570Y-102573690D01*
X168365414Y-102737480D01*
X168400000Y-102911358D01*
X168400000Y-103088642D01*
X168365414Y-103262520D01*
X168297570Y-103426310D01*
X168199076Y-103573717D01*
X168073717Y-103699076D01*
X167926310Y-103797570D01*
X167926309Y-103797571D01*
X167926308Y-103797571D01*
X167878335Y-103817442D01*
X167762520Y-103865414D01*
X167704561Y-103876943D01*
X167588644Y-103900000D01*
X167411356Y-103900000D01*
X167295439Y-103876943D01*
X167237480Y-103865414D01*
X167121665Y-103817442D01*
X167073692Y-103797571D01*
X167073691Y-103797571D01*
X167073690Y-103797570D01*
X166926283Y-103699076D01*
X166800924Y-103573717D01*
X166702430Y-103426310D01*
X166634586Y-103262520D01*
X166600000Y-103088642D01*
X166600000Y-102911358D01*
X166634586Y-102737480D01*
X166702430Y-102573690D01*
X166800924Y-102426283D01*
X166926283Y-102300924D01*
X167073690Y-102202430D01*
X167237480Y-102134586D01*
X167295439Y-102123057D01*
X167411356Y-102100000D01*
X167588644Y-102100000D01*
X167704561Y-102123057D01*
G37*
G36*
X196400000Y-103900000D02*
G01*
X194600000Y-103900000D01*
X194600000Y-102100000D01*
X196400000Y-102100000D01*
X196400000Y-103900000D01*
G37*
G36*
X193164561Y-102123057D02*
G01*
X193222520Y-102134586D01*
X193386310Y-102202430D01*
X193533717Y-102300924D01*
X193659076Y-102426283D01*
X193757570Y-102573690D01*
X193825414Y-102737480D01*
X193860000Y-102911358D01*
X193860000Y-103088642D01*
X193825414Y-103262520D01*
X193757570Y-103426310D01*
X193659076Y-103573717D01*
X193533717Y-103699076D01*
X193386310Y-103797570D01*
X193386309Y-103797571D01*
X193386308Y-103797571D01*
X193338335Y-103817442D01*
X193222520Y-103865414D01*
X193164561Y-103876943D01*
X193048644Y-103900000D01*
X192871356Y-103900000D01*
X192755439Y-103876943D01*
X192697480Y-103865414D01*
X192581665Y-103817442D01*
X192533692Y-103797571D01*
X192533691Y-103797571D01*
X192533690Y-103797570D01*
X192386283Y-103699076D01*
X192260924Y-103573717D01*
X192162430Y-103426310D01*
X192094586Y-103262520D01*
X192060000Y-103088642D01*
X192060000Y-102911358D01*
X192094586Y-102737480D01*
X192162430Y-102573690D01*
X192260924Y-102426283D01*
X192386283Y-102300924D01*
X192533690Y-102202430D01*
X192697480Y-102134586D01*
X192755439Y-102123057D01*
X192871356Y-102100000D01*
X193048644Y-102100000D01*
X193164561Y-102123057D01*
G37*
M02*
